<svg xmlns="http://www.w3.org/2000/svg" viewBox="0 0 60 60"><defs><style>.cls-1{fill:#fff;}.cls-2{fill:none;}</style></defs><title>Icon_record</title><g id="Layer_2" data-name="Layer 2"><g id="DESAIN"><g id="path48"><path class="cls-1" d="M37.08,27v.58a6.7,6.7,0,0,1-6.91,6.63,6.7,6.7,0,0,1-6.91-6.63V27H19.71v.58a10.16,10.16,0,0,0,5,8.63v8.25h3.72V38.15H31.7v6.34h3.71V36.34a10.14,10.14,0,0,0,5.23-8.74V27Z"/></g><g id="g4237"><path id="path50" class="cls-1" d="M30.14,31.83a4.16,4.16,0,0,0,4.22-4.24V19.11a4.22,4.22,0,1,0-8.45,0v8.48A4.16,4.16,0,0,0,30.14,31.83Z"/></g><rect class="cls-2" width="60" height="60"/></g></g></svg>