<svg xmlns="http://www.w3.org/2000/svg" viewBox="0 0 60 60"><defs><style>.cls-1{fill:#fff;}.cls-2{fill:none;}</style></defs><title>Icon_listen</title><g id="Layer_2" data-name="Layer 2"><g id="DESAIN"><path class="cls-1" d="M30.72,39.7a.69.69,0,0,1-.37-.11L21,34.09H17.14a.69.69,0,0,1-.69-.69l0-6.85a.69.69,0,0,1,.69-.69H21l9.32-5.26a.71.71,0,0,1,.37-.11.69.69,0,0,1,.69.69V39A.69.69,0,0,1,30.72,39.7Z"/><path class="cls-1" d="M30.41,21.72V38.47l-8.62-5.09-.47-.28H17.44l0-6.23H21.3l.46-.26,8.66-4.89m.31-2.22a1.68,1.68,0,0,0-.86.24l-9.09,5.13H17.12a1.69,1.69,0,0,0-1.69,1.69l0,6.85a1.69,1.69,0,0,0,1.69,1.69h3.64l9,5.34A1.69,1.69,0,0,0,32.41,39V21.19a1.69,1.69,0,0,0-1.69-1.69Z"/><path class="cls-1" d="M39.86,39.33A1,1,0,0,1,39,37.88a17,17,0,0,0,1.86-7.77,17.17,17.17,0,0,0-2-8,1,1,0,1,1,1.77-.93,19.18,19.18,0,0,1,2.18,8.88,18.94,18.94,0,0,1-2.08,8.68A1,1,0,0,1,39.86,39.33Z"/><path class="cls-1" d="M36.43,35.9a1,1,0,0,1-.94-1.35,12.67,12.67,0,0,0-.07-9.07,1,1,0,1,1,1.86-.73,14.66,14.66,0,0,1,.09,10.51A1,1,0,0,1,36.43,35.9Z"/><rect class="cls-2" width="60" height="60"/></g></g></svg>